<?xml version="1.0" encoding="UTF-8" standalone="no"?>
<svg
   xmlns:dc="http://purl.org/dc/elements/1.1/"
   xmlns:cc="http://creativecommons.org/ns#"
   xmlns:rdf="http://www.w3.org/1999/02/22-rdf-syntax-ns#"
   xmlns:svg="http://www.w3.org/2000/svg"
   xmlns="http://www.w3.org/2000/svg"
   xmlns:sodipodi="http://sodipodi.sourceforge.net/DTD/sodipodi-0.dtd"
   xmlns:inkscape="http://www.inkscape.org/namespaces/inkscape"
   id="Layer_1"
   version="1.1"
   xml:space="preserve"
   viewBox="0 0 508.204 277.561"
   enable-background="new 0 0 508.204 277.561"
   y="0px"
   x="0px"
   sodipodi:docname="cargobike.svg"
   inkscape:version="1.0.1 (3bc2e813f5, 2020-09-07)"><defs
   id="defs74" /><sodipodi:namedview
   pagecolor="#ffffff"
   bordercolor="#666666"
   borderopacity="1"
   objecttolerance="10"
   gridtolerance="10"
   guidetolerance="10"
   inkscape:pageopacity="0"
   inkscape:pageshadow="2"
   inkscape:window-width="1920"
   inkscape:window-height="1017"
   id="namedview72"
   showgrid="false"
   inkscape:zoom="2.1546466"
   inkscape:cx="254.102"
   inkscape:cy="147.98336"
   inkscape:window-x="-8"
   inkscape:window-y="-8"
   inkscape:window-maximized="1"
   inkscape:current-layer="Layer_1" />

 <metadata
   id="metadata43">image/svg+xmlOpenclipartCargo Bike (Tricycle)2013-06-20T10:33:47Cargo-Tricycle\nOwn work, released under public domainhttps://openclipart.org/detail/179432/cargo-bike-tricycle-by-joky-179432jokybicyclecargo bicyclecargobikecycle logisticcyclelogisticlastenfahrradlastenradlogistic<rdf:RDF><cc:Work
     rdf:about=""><dc:format>image/svg+xml</dc:format><dc:type
       rdf:resource="http://purl.org/dc/dcmitype/StillImage" /></cc:Work></rdf:RDF></metadata>
 <g
   id="g48">
  <title
   id="title45">background</title>
  <rect
   fill="none"
   id="canvas_background"
   height="602"
   width="802"
   y="-1"
   x="-1" />
 </g>
 <g
   id="g69">
  <title
   id="title50">Layer 1</title>
  <g
   id="g116"
   ><path
     d="m 145.275,200.55 c 0,38.15956 -30.93444,69.094 -69.094,69.094 -38.159563,0 -69.0940009,-30.93444 -69.094002,-69.094 1.1e-6,-38.15956 30.934439,-69.094 69.094002,-69.094 38.15956,0 69.094,30.93444 69.094,69.094 z"
     id="path118" /><path
     d="M 76.181641 124.36914 C 34.192249 124.36914 1.215428e-06 158.56139 0 200.55078 C 1.215428e-06 242.54017 34.192249 276.73047 76.181641 276.73047 C 118.17103 276.73047 152.36133 242.54017 152.36133 200.55078 C 152.36133 158.56139 118.17103 124.36914 76.181641 124.36914 z M 76.181641 138.54297 C 110.51137 138.54297 138.18945 166.22105 138.18945 200.55078 C 138.18945 234.88051 110.51137 262.55664 76.181641 262.55664 C 41.851907 262.55664 14.173829 234.88052 14.173828 200.55078 C 14.173829 166.22105 41.851907 138.54297 76.181641 138.54297 z "
     id="path120" /></g>
  <g
   id="g122"
   ><path
     d="m 83.991,200.55 c 0,4.31334 -3.496656,7.81 -7.81,7.81 -4.313344,0 -7.81,-3.49666 -7.81,-7.81 0,-4.31334 3.496656,-7.81 7.81,-7.81 4.313344,0 7.81,3.49666 7.81,7.81 z"
     id="path124" /><path
     d="M 76.181641 192.24023 C 71.598077 192.24023 67.871094 195.96722 67.871094 200.55078 C 67.871094 205.13435 71.598077 208.85938 76.181641 208.85938 C 80.765205 208.85938 84.490234 205.13435 84.490234 200.55078 C 84.490234 195.96722 80.765205 192.24023 76.181641 192.24023 z M 76.181641 193.24023 C 80.224764 193.24023 83.490234 196.50766 83.490234 200.55078 C 83.490234 204.59391 80.224764 207.85938 76.181641 207.85938 C 72.138517 207.85938 68.871094 204.59391 68.871094 200.55078 C 68.871094 196.50766 72.138517 193.24023 76.181641 193.24023 z "
     id="path126" /></g>
  <g
   id="g128"><path
     d="M 117.99,54.310001 190.99001,200.55"
     id="path130" /><path
     d="M 123.0625 51.777344 L 112.91797 56.841797 L 185.91797 203.08203 L 196.0625 198.01758 L 123.0625 51.777344 z "
     id="path132" /></g>
  <g
   id="g134"
  ><path
     d="M 81.344002,200.55 H 393.84"
     id="path136" /><path
     d="M 81.34375 194.88086 A 5.6694999 5.6694999 0 0 0 75.673828 200.55078 A 5.6694999 5.6694999 0 0 0 81.34375 206.21875 L 393.83984 206.21875 A 5.6694999 5.6694999 0 0 0 399.50977 200.55078 A 5.6694999 5.6694999 0 0 0 393.83984 194.88086 L 81.34375 194.88086 z "
     id="path138" /></g>
  <g
   id="g140"
   ><path
     d="M 152.02,131.46001 77.606003,200.55"
     id="path142" /><path
     d="M 148.16211 127.30469 L 73.748047 196.39453 L 81.462891 204.70508 L 155.87695 135.61523 L 148.16211 127.30469 z "
     id="path144" /></g>
  <path
   id="svg_6"
   d="m185.28,209.81"
   stroke-miterlimit="10"
   stroke-width="11.339"
   stroke="#000000" />
  <path
   id="svg_7"
   d="m210.28,171.86"
   stroke-miterlimit="10"
   stroke-width="11.339"
   stroke="#000000" />
  <g
   id="svg_8"
   stroke-miterlimit="10"
   stroke-width="11.339"
   stroke="#000000">
   <g
   id="g146"
   ><path
     d="m 166.27,238.2 49.61,-75.30001"
     id="path148" /><path
     d="M 211.14648 159.78125 L 161.53516 235.08008 L 171.00391 241.31836 L 220.61523 166.01953 L 211.14648 159.78125 z "
     id="path150" /></g>
   <g
   id="g152"
   ><path
     d="m 203.77,162.89999 h 23.89"
     id="path154" /><path
     d="M 203.76953 157.23047 A 5.6694999 5.6694999 0 0 0 198.09961 162.90039 A 5.6694999 5.6694999 0 0 0 203.76953 168.57031 L 227.66016 168.57031 A 5.6694999 5.6694999 0 0 0 233.33008 162.90039 A 5.6694999 5.6694999 0 0 0 227.66016 157.23047 L 203.76953 157.23047 z "
     id="path156" /></g>
   <g
   id="g158"
   ><path
     d="M 154.32001,238.2 H 178.22"
     id="path160" /><path
     d="M 154.32031 232.53125 A 5.6694999 5.6694999 0 0 0 148.65039 238.19922 A 5.6694999 5.6694999 0 0 0 154.32031 243.86914 L 178.2207 243.86914 A 5.6694999 5.6694999 0 0 0 183.88867 238.19922 A 5.6694999 5.6694999 0 0 0 178.2207 232.53125 L 154.32031 232.53125 z "
     id="path162" /></g>
  </g>
  <g
   id="g164"
   ><path
     d="m 100.78,54.310001 h 40.27"
     id="path166" /><path
     d="M 100.7793 45.806641 A 8.5039997 8.5039997 0 0 0 92.275391 54.310547 A 8.5039997 8.5039997 0 0 0 100.7793 62.814453 L 141.05078 62.814453 A 8.5039997 8.5039997 0 0 0 149.55469 54.310547 A 8.5039997 8.5039997 0 0 0 141.05078 45.806641 L 100.7793 45.806641 z "
     id="path168" /></g>
  <g
   id="g170"
   ><path
     d="m 502.54,195.81001 -240,-0.919 c 4.875,0 4.331,-1.619 4.331,-4.75 V 50.141 c 0,-1.565 0.647,-3.062 1.788,-4.133 1.142,-1.071 2.665,-1.625 4.237,-1.525 l 230,14.5 c 2.987,0.188 5.313,2.666 5.313,5.658 v 125.50001 c -0.01,3.13 -2.54,5.67 -5.67,5.67 z"
     id="path172" /><path
     d="M 272.92773 43.984375 C 271.21855 43.875648 269.55745 44.478696 268.31641 45.642578 C 267.07466 46.808143 266.37109 48.437819 266.37109 50.140625 L 266.37109 190.14062 C 266.37109 191.73508 266.44376 192.86332 266.10352 193.43555 C 265.93339 193.72166 265.67693 193.93809 265.12305 194.11328 C 264.56958 194.28834 263.73067 194.39047 262.54102 194.39062 C 262.54013 194.39063 262.53995 194.39062 262.53906 194.39062 L 262.53711 195.39062 L 262.53906 195.39062 L 501.33594 196.30664 L 501.33203 196.31055 L 502.53711 196.31055 L 502.53906 196.31055 C 505.93956 196.31055 508.69813 193.54115 508.70898 190.14258 L 508.70898 64.640625 C 508.70898 61.38949 506.17339 58.688655 502.92773 58.484375 L 272.92773 43.984375 z M 272.86328 44.982422 L 272.86523 44.982422 L 502.86523 59.482422 C 505.59358 59.654142 507.70898 61.90776 507.70898 64.640625 L 507.70898 190.13867 C 507.69984 192.99944 505.39959 195.30947 502.54102 195.31055 L 502.53906 195.31055 L 266.33203 194.4043 C 266.52773 194.23984 266.83864 194.15428 266.96289 193.94531 C 267.56939 192.92529 267.37109 191.67717 267.37109 190.14062 L 267.37109 50.140625 C 267.37109 48.713431 267.9617 47.349482 269.00195 46.373047 C 270.04491 45.394929 271.42846 44.891148 272.86328 44.982422 z "
     id="path174" /></g>
  <g
   id="g176"
   ><path
     d="m 457.125,207.97 c 0,34.52056 -27.98444,62.505 -62.505,62.505 -34.52056,0 -62.50501,-27.98444 -62.50501,-62.505 0,-34.52056 27.98445,-62.505 62.50501,-62.505 34.52056,0 62.505,27.98444 62.505,62.505 z"
     id="path178" /><path
     d="M 394.61914 138.37891 C 356.26875 138.3789 325.0293 169.62031 325.0293 207.9707 C 325.0293 246.32109 356.26875 277.56055 394.61914 277.56055 C 432.96953 277.56055 464.21094 246.32109 464.21094 207.9707 C 464.21094 169.62032 432.96953 138.37891 394.61914 138.37891 z M 394.61914 152.55078 C 425.30987 152.55078 450.03906 177.27997 450.03906 207.9707 C 450.03906 238.66143 425.30987 263.38867 394.61914 263.38867 C 363.92841 263.38868 339.20117 238.66144 339.20117 207.9707 C 339.20117 177.27997 363.92841 152.55078 394.61914 152.55078 z "
     id="path180" /></g>
  <g
   id="g182"
   ><path
     d="m 405.93,207.97 c 0,6.24634 -5.06366,11.31 -11.31,11.31 -6.24634,1e-5 -11.31001,-5.06366 -11.31001,-11.31 0,-6.24634 5.06367,-11.31001 11.31001,-11.31 6.24634,0 11.31,5.06366 11.31,11.31 z"
     id="path184" /><path
     d="M 394.61914 196.16016 C 388.10258 196.16015 382.81055 201.45414 382.81055 207.9707 C 382.81055 214.48727 388.10258 219.7793 394.61914 219.7793 C 401.1357 219.7793 406.42969 214.48726 406.42969 207.9707 C 406.42969 201.45414 401.1357 196.16016 394.61914 196.16016 z M 394.61914 197.16016 C 400.59526 197.16016 405.42969 201.99458 405.42969 207.9707 C 405.42969 213.94682 400.59526 218.7793 394.61914 218.7793 C 388.64302 218.7793 383.81055 213.94683 383.81055 207.9707 C 383.81055 201.99458 388.64302 197.16015 394.61914 197.16016 z "
     id="path186" /></g>
  <g
   id="g188"
   ><path
     d="M 271.28,50.31 260.42,27.81 228.28,6.31"
     id="path190" /><path
     d="M 228.18555 2.0585938 A 4.2519498 4.2519498 0 0 0 224.74609 3.9453125 A 4.2519498 4.2519498 0 0 0 225.91602 9.84375 L 257.09375 30.701172 L 267.45117 52.158203 A 4.2519498 4.2519498 0 0 0 273.12891 54.138672 A 4.2519498 4.2519498 0 0 0 275.10938 48.460938 L 264.25 25.960938 A 4.252375 4.252375 0 0 0 262.7832 24.275391 L 230.64453 2.7753906 A 4.2519498 4.2519498 0 0 0 228.18555 2.0585938 z "
     id="path192" /></g>
  <g
   id="g194"
   ><path
     d="m 234.59,6.3099999 c 0,3.4849168 -2.82508,6.3100001 -6.31,6.3100001 -3.48492,0 -6.31,-2.8250833 -6.31,-6.3100001 C 221.97,2.8250831 224.79508,-5.5228475e-8 228.28,0 c 3.48492,-5.5228475e-8 6.31,2.8250831 6.31,6.3099999 z"
     id="path196" /><path
     d="M 228.2793 -0.5 C 224.52416 -0.50000006 221.4707 2.5554101 221.4707 6.3105469 C 221.4707 10.065684 224.52416 13.119141 228.2793 13.119141 C 232.03443 13.119141 235.08984 10.065684 235.08984 6.3105469 C 235.08984 2.5554101 232.03443 -0.50000006 228.2793 -0.5 z M 228.2793 0.5 C 231.49399 0.49999995 234.08984 3.0958502 234.08984 6.3105469 C 234.08984 9.5252436 231.49399 12.119141 228.2793 12.119141 C 225.0646 12.119141 222.4707 9.5252436 222.4707 6.3105469 C 222.4707 3.0958502 225.0646 0.49999995 228.2793 0.5 z "
     id="path198" /></g>
 </g>
</svg>
